<svg width="274" height="183" viewBox="0 0 274 183" fill="none" xmlns="http://www.w3.org/2000/svg">
<path d="M273.547 45.8297C273.547 8.0873 260.104 -24.1798 233.217 -50.9716C206.648 -77.6571 174.501 -90.9999 136.774 -90.9999C98.9404 -90.9999 66.6333 -77.6571 39.8524 -50.9716C13.2842 -24.1798 0 8.0873 0 45.8297C0 83.6785 13.2842 115.892 39.8524 142.472C66.6333 169.263 98.9404 182.659 136.774 182.659C174.501 182.659 206.648 169.263 233.217 142.472C260.104 115.892 273.547 83.6785 273.547 45.8297ZM67.7492 -20.0335C87.7285 -39.9147 111.799 -49.8553 139.962 -49.8553C168.124 -49.8553 192.142 -39.9147 212.015 -20.0335C231.994 -0.0459526 241.984 24.0348 241.984 52.2087C241.984 80.3826 231.994 104.41 212.015 124.291C192.142 144.279 168.124 154.273 139.962 154.273C111.799 154.273 87.7285 144.279 67.7492 124.291C47.8761 104.41 37.9396 80.3826 37.9396 52.2087C37.9396 24.0348 47.8761 -0.0459526 67.7492 -20.0335Z" fill="white" fill-opacity="0.301961"/>
<path d="M139.961 -49.8561C111.799 -49.8561 87.7281 -39.9155 67.7488 -20.0343C47.8757 -0.0467441 37.9392 24.034 37.9392 52.2079C37.9392 80.3819 47.8757 104.409 67.7488 124.291C87.7281 144.278 111.799 154.272 139.961 154.272C168.124 154.272 192.142 144.278 212.015 124.291C231.994 104.409 241.984 80.3819 241.984 52.2079C241.984 24.034 231.994 -0.0467441 212.015 -20.0343C192.142 -39.9155 168.124 -49.8561 139.961 -49.8561Z" fill="white"/>
</svg>
