<svg width="1920" height="301" viewBox="0 0 1920 301" fill="none" xmlns="http://www.w3.org/2000/svg">
<g filter="url(#filter0_dd_23_1578)">
<path d="M0 7.04565C76.5075 3.43327 153.515 3.20113 231.023 6.34906C305.155 9.34217 377.912 13.1094 449.294 17.6507C522.926 22.2952 599.121 24.5657 677.879 24.4625C756.636 24.3593 831.331 21.4178 901.963 15.638C971.72 9.85823 1044.91 5.67822 1121.55 3.09795C1198.3 0.466076 1274.12 1.08526 1349.01 4.95567C1421.89 8.72287 1494.02 12.9029 1565.4 17.4958C1642.41 22.3983 1717.73 21.934 1791.36 16.1026C1833.49 12.7482 1876.37 9.72914 1920 7.04565V300.5H0V7.04565Z" fill="url(#paint0_linear_23_1578)"/>
</g>
<path d="M0 7.04565C76.5075 3.43327 153.515 3.20113 231.023 6.34906C305.155 9.34217 377.912 13.1094 449.294 17.6507C522.926 22.2952 599.121 24.5657 677.879 24.4625C756.636 24.3593 831.331 21.4178 901.963 15.638C971.72 9.85823 1044.91 5.67822 1121.55 3.09795C1198.3 0.466076 1274.12 1.08526 1349.01 4.95567C1421.89 8.72287 1494.02 12.9029 1565.4 17.4958C1642.41 22.3983 1717.73 21.934 1791.36 16.1026C1833.49 12.7482 1876.37 9.72914 1920 7.04565" stroke="#897D6A" stroke-width="3"/>
<defs>
<filter id="filter0_dd_23_1578" x="-4" y="1.5" width="1928" height="307" filterUnits="userSpaceOnUse" color-interpolation-filters="sRGB">
<feFlood flood-opacity="0" result="BackgroundImageFix"/>
<feColorMatrix in="SourceAlpha" type="matrix" values="0 0 0 0 0 0 0 0 0 0 0 0 0 0 0 0 0 0 127 0" result="hardAlpha"/>
<feOffset dy="4"/>
<feGaussianBlur stdDeviation="2"/>
<feComposite in2="hardAlpha" operator="out"/>
<feColorMatrix type="matrix" values="0 0 0 0 0 0 0 0 0 0 0 0 0 0 0 0 0 0 0.25 0"/>
<feBlend mode="normal" in2="BackgroundImageFix" result="effect1_dropShadow_23_1578"/>
<feColorMatrix in="SourceAlpha" type="matrix" values="0 0 0 0 0 0 0 0 0 0 0 0 0 0 0 0 0 0 127 0" result="hardAlpha"/>
<feOffset dy="4"/>
<feGaussianBlur stdDeviation="2"/>
<feComposite in2="hardAlpha" operator="out"/>
<feColorMatrix type="matrix" values="0 0 0 0 0 0 0 0 0 0 0 0 0 0 0 0 0 0 0.25 0"/>
<feBlend mode="normal" in2="effect1_dropShadow_23_1578" result="effect2_dropShadow_23_1578"/>
<feBlend mode="normal" in="SourceGraphic" in2="effect2_dropShadow_23_1578" result="shape"/>
</filter>
<linearGradient id="paint0_linear_23_1578" x1="960" y1="1.5" x2="960" y2="300.5" gradientUnits="userSpaceOnUse">
<stop stop-color="#BFB099"/>
<stop offset="0.831731" stop-color="#C0B198"/>
</linearGradient>
</defs>
</svg>
