<svg width="1920" height="408" viewBox="0 0 1920 408" fill="none" xmlns="http://www.w3.org/2000/svg">
<path d="M731.25 1.5C741.625 1.5 750.5 4.51209 757.875 10.5353L1031.25 233.802L1211.06 87.1011C1218.31 81.0779 1227.12 78.0658 1237.5 78.0658C1247.88 78.0658 1256.75 81.0779 1264.12 87.1011L1387.5 187.862L1454.81 133.041C1462.06 127.017 1470.88 124.006 1481.25 124.006C1491.62 124.006 1500.5 127.017 1507.88 133.041L1650 249.115L1698.56 209.606C1705.81 203.583 1714.63 200.572 1725 200.572C1735.37 200.572 1744.25 203.583 1751.62 209.606L1803.75 252.178L1893.56 178.98C1898.94 174.488 1905.25 171.681 1912.5 170.558L1919.06 169.946H1920V407.5H0V169.946H0.9375C10.9375 170.15 19.5 173.161 26.625 178.98L82.6875 224.767L142.312 176.071C145.437 173.416 148.875 171.375 152.625 169.946C157.5 168.006 162.875 167.036 168.75 167.036C174.625 167.036 180.062 168.006 185.062 169.946C188.687 171.375 192.125 173.416 195.375 176.071L273.75 240.081C281 234.159 289.75 231.199 300 231.199C310.375 231.199 319.25 234.211 326.625 240.234L375 279.741L704.812 10.5353C712.062 4.51209 720.875 1.5 731.25 1.5Z" fill="url(#paint0_linear_23_1584)"/>
<path d="M1920 169.946H1919.06L1912.5 170.558C1905.25 171.681 1898.94 174.488 1893.56 178.98L1803.75 252.178L1751.62 209.606C1744.25 203.583 1735.37 200.572 1725 200.572C1714.63 200.572 1705.81 203.583 1698.56 209.606L1650 249.115L1507.88 133.041C1500.5 127.017 1491.62 124.006 1481.25 124.006C1470.88 124.006 1462.06 127.017 1454.81 133.041L1387.5 187.862L1264.12 87.1011C1256.75 81.0779 1247.88 78.0658 1237.5 78.0658C1227.12 78.0658 1218.31 81.0779 1211.06 87.1011L1031.25 233.802L757.875 10.5353C750.5 4.51209 741.625 1.5 731.25 1.5C720.875 1.5 712.062 4.51209 704.812 10.5353L375 279.741L326.625 240.234C319.25 234.211 310.375 231.199 300 231.199C289.75 231.199 281 234.159 273.75 240.081L195.375 176.071C192.125 173.416 188.687 171.375 185.062 169.946C180.062 168.006 174.625 167.036 168.75 167.036C162.875 167.036 157.5 168.006 152.625 169.946C148.875 171.375 145.437 173.416 142.312 176.071L82.6875 224.767L26.625 178.98C19.5 173.161 10.9375 170.15 0.9375 169.946H0" stroke="#88977D" stroke-width="3"/>
<defs>
<linearGradient id="paint0_linear_23_1584" x1="960" y1="407.5" x2="960" y2="1.5" gradientUnits="userSpaceOnUse">
<stop stop-color="#BFD3B0"/>
<stop offset="1" stop-color="#BCCAB1"/>
</linearGradient>
</defs>
</svg>
