<svg width="1920" height="106" viewBox="0 0 1920 106" fill="none" xmlns="http://www.w3.org/2000/svg">
<path d="M1121.72 3.1937C1198.46 1.22098 1274.24 1.69341 1349.06 4.61069C1421.96 7.4611 1494.09 10.6125 1565.45 14.0648C1642.45 17.7762 1717.78 17.429 1791.45 13.0238C1833.56 10.5077 1876.41 8.23804 1920 6.21518V106H0V6.21518C76.5477 3.47344 153.575 3.28613 231.083 5.6517C305.327 7.9337 378.131 10.7793 449.494 14.1898C523.098 17.6838 599.262 19.3896 677.985 19.306C756.773 19.2308 831.465 17.0155 902.061 12.6605C971.888 8.33055 1045.11 5.17477 1121.72 3.1937Z" fill="#23BF76"/>
<path d="M1920 6.21518C1876.41 8.23804 1833.56 10.5077 1791.45 13.0238C1717.78 17.429 1642.45 17.7762 1565.45 14.0648C1494.09 10.6125 1421.96 7.4611 1349.06 4.61069C1274.24 1.69341 1198.46 1.22098 1121.72 3.1937C1045.11 5.17477 971.888 8.33055 902.061 12.6605C831.465 17.0155 756.773 19.2308 677.985 19.306C599.262 19.3896 523.098 17.6838 449.494 14.1898C378.131 10.7793 305.327 7.9337 231.083 5.6517C153.575 3.28613 76.5477 3.47344 0 6.21518" stroke="#897D6A" stroke-width="4"/>
</svg>
