<svg width="1920" height="358" viewBox="0 0 1920 358" fill="none" xmlns="http://www.w3.org/2000/svg">
<path d="M0 246.137L80.2641 332.336L351.395 40.9233C368.741 24.8698 384.487 24.8698 398.632 40.9233L640.288 300.584L722.761 212.041C736.202 199.398 748.075 199.398 758.38 212.041L847.861 308.256L971.617 175.282C983.522 163.491 994.628 163.491 1004.93 175.282L1097.97 275.332L1342.12 13.0073C1356.01 -2.33578 1369.96 -2.33578 1383.98 13.0073L1594.62 246.137L1688.91 144.809C1699.91 132.52 1710.92 132.52 1721.93 144.809L1868.06 301.863L1920 246.137V357.588H0V246.137Z" fill="url(#paint0_linear_23_1582)"/>
<path d="M0 246.137L80.2641 332.336L351.395 40.9233C368.741 24.8698 384.487 24.8698 398.632 40.9233L640.288 300.584L722.761 212.041C736.202 199.398 748.075 199.398 758.38 212.041L847.861 308.256L971.617 175.282C983.522 163.491 994.628 163.491 1004.93 175.282L1097.97 275.332L1342.12 13.0073C1356.01 -2.33578 1369.96 -2.33578 1383.98 13.0073L1594.62 246.137L1688.91 144.809C1699.91 132.52 1710.92 132.52 1721.93 144.809L1868.06 301.863L1920 246.137" stroke="#88A88F" stroke-width="3"/>
<defs>
<linearGradient id="paint0_linear_23_1582" x1="960" y1="357.588" x2="960" y2="1.5" gradientUnits="userSpaceOnUse">
<stop stop-color="#A6D0AF"/>
<stop offset="1" stop-color="#A7BDAC"/>
</linearGradient>
</defs>
</svg>
