<svg width="201" height="404" viewBox="0 0 201 404" fill="none" xmlns="http://www.w3.org/2000/svg">
<g filter="url(#filter0_f_23_1873)">
<ellipse cx="96" cy="370.5" rx="91" ry="28.5" fill="#423232" fill-opacity="0.4"/>
</g>
<path d="M28.9999 321.002L90.0939 326.223L115.995 328.387L200.381 335.581L167.925 235.244L43.7007 246.259L28.9999 321.002ZM139.16 146.049L63.7471 144.012L46.7554 230.342L61.9016 229.514L150.424 224.294L164.17 223.466L139.16 146.049ZM67.0564 127.013L79.1479 127.841L123.25 131.024L134.578 131.788L91.8758 0L67.0564 127.013Z" fill="#448C5E"/>
<path d="M87.6756 338.51L64.5108 373.271H144.06L115.995 328.387L87.6756 338.51Z" fill="#795B48"/>
<path d="M90.0939 326.223L87.6756 338.51L115.995 328.387L90.0939 326.223Z" fill="#6D503D"/>
<path d="M167.925 235.244L150.424 224.294L61.9015 229.515L43.7006 246.259L167.925 235.244ZM79.1479 127.841L63.7471 144.012L139.16 146.049L123.25 131.024L79.1479 127.841Z" fill="#3E7B54"/>
<defs>
<filter id="filter0_f_23_1873" x="0" y="337" width="192" height="67" filterUnits="userSpaceOnUse" color-interpolation-filters="sRGB">
<feFlood flood-opacity="0" result="BackgroundImageFix"/>
<feBlend mode="normal" in="SourceGraphic" in2="BackgroundImageFix" result="shape"/>
<feGaussianBlur stdDeviation="2.5" result="effect1_foregroundBlur_23_1873"/>
</filter>
</defs>
</svg>
