<svg width="294" height="166" viewBox="0 0 294 166" fill="none" xmlns="http://www.w3.org/2000/svg">
<path d="M42.1964 78.0689C40.5465 79.5957 38.6697 80.6067 36.5661 81.1019C28.564 83.0001 21.3869 86.9615 15.0347 92.9861C14.9935 92.9861 14.9728 93.0068 14.9728 93.0481C8.86817 98.8664 4.66088 105.572 2.35101 113.165C2.10352 113.907 1.81485 114.609 1.48486 115.269C2.88729 119.354 5.21774 123.13 8.47632 126.596C13.5498 131.961 19.5926 135.055 26.6048 135.881C28.7084 138.852 31.0595 141.74 33.6581 144.546C46.1562 157.586 61.191 164.539 78.7625 165.406C93.0343 166.066 105.615 162.6 116.504 155.007C124.671 160.413 133.87 163.342 144.099 163.796C155.525 164.374 165.672 161.774 174.54 155.997C182.006 159.917 190.214 162.104 199.165 162.558C213.767 163.26 226.388 159.113 237.03 150.117C241.98 154.863 247.672 157.895 254.107 159.216C254.148 158.556 254.169 157.875 254.169 157.173C254.128 151.107 251.962 145.784 247.672 141.204C247.672 141.163 247.652 141.142 247.61 141.142C243.238 136.603 238.02 134.189 231.957 133.9C231.874 133.9 231.792 133.9 231.709 133.9C230.596 133.818 229.544 133.818 228.554 133.9C225.584 134.189 222.841 133.487 220.325 131.796C217.809 130.062 216.159 127.752 215.375 124.863C213.313 117.477 209.374 110.73 203.558 104.623H203.62C194.71 95.297 183.944 90.3246 171.323 89.7056C164.764 89.3755 158.701 90.3039 153.132 92.491C150.781 93.4401 148.368 93.6464 145.893 93.1099C143.46 92.5322 141.377 91.3355 139.644 89.5199C137.871 87.7042 136.778 85.5585 136.365 83.0826C134.715 73.5917 130.322 65.1118 123.186 57.6429H123.125C113.926 47.987 102.831 42.8289 89.8376 42.1687C77.1333 41.5084 66.2645 45.4286 57.2312 53.9291C57.19 53.9704 57.1694 54.0117 57.1694 54.0529C51.5597 59.4173 47.703 65.607 45.5993 72.622C44.9394 74.7265 43.8051 76.5421 42.1964 78.0689Z" fill="#C9DEE5"/>
<path d="M17.6953 79.8639C14.3542 81.1431 11.2812 83.1032 8.47639 85.7442C2.82544 91.1086 0 97.7728 0 105.737C0 109.079 0.494989 112.257 1.48494 115.269C1.81492 114.609 2.10359 113.907 2.35108 113.165C4.66096 105.572 8.86825 98.8663 14.9729 93.048C14.9729 93.0068 14.9935 92.9861 15.0348 92.9861C21.3869 86.9614 28.5641 83.0001 36.5662 81.1019C38.6698 80.6067 40.5466 79.5957 42.1965 78.0689C43.8051 76.5421 44.9394 74.7265 45.5994 72.622C47.7031 65.607 51.5598 59.4173 57.1695 54.0529C57.1695 54.0117 57.1901 53.9703 57.2313 53.9291C66.2646 45.4286 77.1334 41.5084 89.8377 42.1686C102.831 42.8289 113.926 47.987 123.125 57.6429H123.187C130.322 65.1118 134.715 73.5917 136.365 83.0825C136.778 85.5584 137.871 87.7042 139.644 89.5199C141.377 91.3355 143.46 92.5322 145.893 93.1099C148.368 93.6464 150.781 93.44 153.132 92.4909C158.701 90.3039 164.764 89.3755 171.323 89.7056C183.945 90.3245 194.71 95.2969 203.62 104.623H203.558C209.374 110.73 213.313 117.477 215.375 124.863C216.159 127.752 217.809 130.062 220.325 131.796C222.841 133.487 225.584 134.189 228.554 133.9C229.544 133.818 230.596 133.818 231.709 133.9C231.792 133.9 231.875 133.9 231.957 133.9C238.02 134.189 243.238 136.603 247.611 141.142C247.652 141.142 247.672 141.163 247.672 141.204C251.962 145.784 254.128 151.107 254.169 157.173C254.169 157.875 254.148 158.556 254.107 159.216C255.922 159.587 257.799 159.814 259.737 159.897C269.101 160.392 277.123 157.462 283.806 151.107C290.446 144.753 293.767 136.871 293.767 127.463C293.767 118.096 290.446 109.905 283.806 102.89C277.123 95.9159 269.101 92.2227 259.737 91.8101C257.922 91.6863 256.19 91.7069 254.54 91.872C251.983 82.5462 247.054 74.0456 239.753 66.3704C228.575 54.6512 215.045 48.3996 199.165 47.6156C190.709 47.203 182.913 48.4203 175.777 51.2676C173.756 39.3833 168.27 28.7577 159.32 19.3906C147.811 7.30004 133.911 0.862708 117.618 0.0786791C101.325 -0.70535 87.4041 4.37019 75.8547 15.3053C68.6363 22.2791 63.666 30.2844 60.9436 39.3214C50.8379 41.6735 41.7428 46.6665 33.6582 54.3004C25.9036 61.7281 20.5826 70.2493 17.6953 79.8639Z" fill="#E8F2F5"/>
</svg>
