<svg width="246" height="155" viewBox="0 0 246 155" fill="none" xmlns="http://www.w3.org/2000/svg">
<path d="M153.132 84.1798C150.369 84.675 147.75 84.3036 145.275 83.0656C142.8 81.7864 140.944 79.9089 139.706 77.433C136.695 71.2433 132.591 65.5488 127.394 60.3495C115.226 48.1764 100.541 42.0898 83.3411 42.0898C66.1821 42.0898 51.5391 48.1764 39.4122 60.3495H39.3504C33.122 66.5392 28.5022 73.4097 25.4911 80.9611C24.5012 83.437 22.8719 85.3971 20.6033 86.8413C18.2934 88.2856 15.7979 88.9252 13.1168 88.7601C12.2506 88.6776 11.3844 88.6364 10.5182 88.6364C6.88837 88.6364 3.54733 89.2966 0.494995 90.617C1.69118 98.3335 5.21785 105.101 11.075 110.919C18.4171 118.306 27.306 121.999 37.7417 121.999C42.4852 121.999 46.9194 121.235 51.0441 119.709C53.1065 122.35 55.3752 124.908 57.85 127.384C72.4105 141.95 89.982 149.234 110.565 149.234C125.084 149.234 138.098 145.623 149.606 138.402C160.536 149.13 173.694 154.495 189.08 154.495C191.967 154.495 194.772 154.309 197.494 153.938C203.228 146.345 206.095 137.556 206.095 127.57C206.095 115.397 201.784 104.998 193.163 96.3735C184.501 87.7079 174.066 83.3751 161.856 83.3751C158.845 83.3751 155.937 83.6434 153.132 84.1798Z" fill="#C9DEE5"/>
<path d="M41.2065 46.6703C40.0516 46.5878 38.8967 46.5465 37.7417 46.5465C27.306 46.5465 18.4172 50.2191 11.075 57.5642C3.69169 64.9506 0 73.8637 0 84.3037C0 86.4907 0.165021 88.5952 0.495004 90.6172C3.54734 89.2967 6.88838 88.6365 10.5182 88.6365C11.3844 88.6365 12.2506 88.6777 13.1168 88.7603C15.7979 88.9253 18.2934 88.2857 20.6033 86.8415C22.8719 85.3972 24.5012 83.4371 25.4911 80.9613C28.5022 73.4098 33.122 66.5393 39.3504 60.3496H39.4122C51.5391 48.1765 66.1821 42.09 83.3411 42.09C100.541 42.09 115.226 48.1765 127.394 60.3496C132.591 65.5489 136.695 71.2434 139.706 77.4332C140.944 79.909 142.8 81.7866 145.275 83.0658C147.75 84.3037 150.369 84.6751 153.132 84.1799C155.937 83.6435 158.845 83.3752 161.856 83.3752C174.066 83.3752 184.501 87.708 193.163 96.3736C201.784 104.998 206.095 115.397 206.095 127.57C206.095 137.556 203.228 146.345 197.494 153.938C209.539 152.287 220.078 146.943 229.111 137.907C240.165 126.848 245.692 113.498 245.692 97.8592C245.692 82.2611 240.165 68.9326 229.111 57.8737C218.056 46.8148 204.713 41.2853 189.08 41.2853C185.285 41.2853 181.614 41.6154 178.067 42.2756C174.478 34.8892 169.57 28.0806 163.341 21.8496C148.781 7.28317 131.189 0 110.565 0C89.982 0 72.4105 7.28317 57.85 21.8496C50.3429 29.3185 44.7951 37.5921 41.2065 46.6703Z" fill="#E8F2F5"/>
</svg>
