<svg width="263" height="147" viewBox="0 0 263 147" fill="none" xmlns="http://www.w3.org/2000/svg">
<path d="M96.7055 55.5858C89.3634 47.6217 80.4744 43.1857 70.0387 42.2779C60.1393 41.4526 51.7041 44.2174 44.7333 50.5721H44.6713C39.8041 54.9462 36.6488 60.228 35.2051 66.4177C34.6689 68.646 33.5963 70.5855 31.9876 72.2361C30.3377 73.8867 28.3991 75.0008 26.1718 75.5785C21.882 76.6927 17.881 78.6115 14.1687 81.335C14.1687 81.4588 14.1687 81.5826 14.1687 81.7064C14.1687 82.3666 14.2099 83.0474 14.2924 83.7489C12.4363 84.1616 10.6832 84.8631 9.03333 85.8534C8.00213 86.4724 7.01216 87.2151 6.06346 88.0817C2.02117 91.8368 0 96.5822 0 102.318C0 102.689 0.0206843 103.061 0.0619321 103.432C0.226923 107.063 1.23743 110.427 3.09358 113.521C26.5223 144.47 97.1592 153.589 215.004 140.88C210.302 135.969 204.733 133.225 198.299 132.648H198.484C196.175 132.441 193.988 132.544 191.926 132.957C189.327 133.452 186.832 133.122 184.44 131.967C182.006 130.811 180.129 129.078 178.809 126.767C177.283 124.003 175.365 121.382 173.055 118.906C168.394 113.872 163.114 110.344 157.216 108.322C155.401 107.703 153.834 106.733 152.514 105.413C151.153 104.092 150.142 102.545 149.482 100.771C147.75 96.1077 145.048 91.7956 141.377 87.8342C134.653 80.5303 126.507 76.4657 116.938 75.6404C116.195 75.5992 115.432 75.5166 114.648 75.3928C112.462 75.104 110.503 74.2994 108.77 72.9789C107.038 71.6584 105.739 69.9871 104.873 67.9652C102.975 63.5499 100.253 59.4028 96.7055 55.5239V55.5858Z" fill="#C9DEE5"/>
<path d="M261.594 135.062C261.883 133.122 262.027 131.121 262.027 129.058C262.027 119.278 258.562 110.633 251.632 103.123C244.703 95.5713 236.35 91.3829 226.574 90.5576C223.151 90.3101 219.913 90.4751 216.861 91.0528C214.881 87.4628 212.385 84.0379 209.374 80.778C203.228 74.1343 196.216 69.4921 188.338 66.8511C186.11 60.7027 182.563 54.9875 177.696 49.7056C168.745 40.0084 157.917 34.6234 145.213 33.5505C144.677 33.5505 144.1 33.5093 143.481 33.4267C141.088 27.7735 137.603 22.4503 133.024 17.4573C123.455 7.09986 111.885 1.34342 98.3145 0.18801C84.7027 -0.926136 73.1119 2.91154 63.5424 11.7009C56.7778 17.8494 52.385 25.2357 50.3639 33.86C42.8155 35.7582 35.989 39.4926 29.8843 45.0633C19.4899 54.5955 14.2514 66.6861 14.1689 81.335C17.8812 78.6116 21.8822 76.6927 26.172 75.5786C28.3994 75.0009 30.338 73.8867 31.9879 72.2361C33.5965 70.5856 34.6691 68.6461 35.2053 66.4178C36.649 60.2281 39.8043 54.9462 44.6716 50.5722H44.7335C51.7044 44.2174 60.1395 41.4527 70.039 42.278C80.4747 43.1858 89.3636 47.6218 96.7057 55.5858V55.524C100.253 59.4028 102.975 63.5499 104.873 67.9652C105.739 69.9872 107.038 71.6585 108.771 72.979C110.503 74.2994 112.462 75.104 114.649 75.3929C115.432 75.5167 116.195 75.5992 116.938 75.6405C126.507 76.4658 134.654 80.5304 141.377 87.8342C145.048 91.7956 147.75 96.1077 149.482 100.771C150.142 102.545 151.153 104.092 152.514 105.413C153.834 106.733 155.401 107.703 157.216 108.322C163.115 110.344 168.394 113.872 173.055 118.907C175.365 121.382 177.283 124.003 178.809 126.767C180.129 129.078 182.006 130.811 184.44 131.967C186.832 133.122 189.328 133.452 191.926 132.957C193.989 132.544 196.175 132.441 198.485 132.648H198.299C204.734 133.225 210.302 135.969 215.004 140.88C229.771 139.271 245.301 137.331 261.594 135.062Z" fill="#E8F2F5"/>
</svg>
